# xmcd CD database file generated by MAGIX_Freedb v0.9beta0
# 
# Track frame offsets:
#      150
#      17467
#      32247
#      47892
#      63110
#      81322
#      99027
#      116797
#      133267
#      146552
#      164835
#      180535
#      194762
#      210700
#      211602
#      229697
#      241397
#      250687
#      262597
#      271265
#      283062
#      294665
#      299870
#      307862
# 
# Disc length: 4162 seconds
# 
# Revision: 0 
# Processed by: cddbd v1.5.1PL0 Copyright (c) Steve Scherf et al.
# Submitted via: MAGIX_Freedb v0.9beta0
# 
DISCID=69104018
DTITLE=Jackson Five - Soul Legends  Jackson Five
DYEAR=1995
DGENRE=
TTITLE0=The Jackson Five - Big Boy
TTITLE1=The Jackson Five - You've Changed
TTITLE2=The Jackson Five - We Don't Have To Be Over 21
TTITLE3=The Jackson Five - Michael The Lover
TTITLE4=The Jackson Five - Stormy Monday
TTITLE5=The Jackson Five - Saturday Night At The Movies
TTITLE6=The Jackson Five - Tracks Of My Tears
TTITLE7=The Jackson Five - A Change Is Gonna Come
TTITLE8=The Jackson Five - Lonely Heart
TTITLE9=The Jackson Five - Boys and Girls We Are The Jackson Five (Jam Session)
TTITLE10=The Jackson Five - My Girl
TTITLE11=The Jackson Five - Soul Jerk
TTITLE12=The Jackson Five - Under The Boardwalk
TTITLE13=The Jackson Five - From The Rehearsals The Introduction
TTITLE14=The Jackson Five - Boys and Girls We Are The Jackson Five
TTITLE15=The Jackson Five - My Girl
TTITLE16=The Jackson Five - Soul Jerk
TTITLE17=The Jackson Five - Under The Boardwalk
TTITLE18=The Jackson Five - Saturday Night At The Movies
TTITLE19=The Jackson Five - Stormy Monday
TTITLE20=The Jackson Five - Track Of My Tears
TTITLE21=The Jackson Five - Lonely Heart
TTITLE22=The Jackson Five - A Change Is Gonna Come
TTITLE23=The Jackson Five - Baby,You Don't Have To Go
EXTD=From 14 and up Bonus tracks.Parts of the original sessions from 1965 to 1967
EXTT0=
EXTT1=
EXTT2=
EXTT3=
EXTT4=
EXTT5=
EXTT6=
EXTT7=
EXTT8=
EXTT9=
EXTT10=
EXTT11=
EXTT12=
EXTT13=
EXTT14=
EXTT15=
EXTT16=
EXTT17=
EXTT18=
EXTT19=
EXTT20=
EXTT21=
EXTT22=
EXTT23=
PLAYORDER=
